<svg width="19" height="19" fill="none" xmlns="http://www.w3.org/2000/svg"><path fill="#E5E5E5" d="M0 0h19v19H0z"/><g clip-path="url(#a)"><path fill="#F2F2F2" d="M-915-23H365v3557.86H-915z"/><g filter="url(#b)"><path fill="#fff" d="M-875-23H325v3557.86H-875z"/><path fill="#fff" d="M-875-23H325v64H-875z"/><path d="m18.5 17.008-3.7-3.68c1-1.292 1.7-2.983 1.7-4.872C16.5 4.08 12.9.5 8.5.5s-8 3.68-8 8.055c0 4.376 3.6 7.956 8 7.956 1.8 0 3.5-.597 4.9-1.69l3.7 3.679 1.4-1.492Zm-10-2.486c-3.3 0-6-2.685-6-5.967 0-3.282 2.7-5.967 6-5.967s6 2.685 6 5.967c0 3.282-2.7 5.967-6 5.967Z" fill="#000"/></g></g><defs><clipPath id="a"><path fill="#fff" transform="translate(-915 -23)" d="M0 0h1280v3557.86H0z"/></clipPath><filter id="b" x="-890" y="-38" width="1230" height="3587.86" filterUnits="userSpaceOnUse" color-interpolation-filters="sRGB"><feFlood flood-opacity="0" result="BackgroundImageFix"/><feColorMatrix in="SourceAlpha" values="0 0 0 0 0 0 0 0 0 0 0 0 0 0 0 0 0 0 127 0" result="hardAlpha"/><feOffset/><feGaussianBlur stdDeviation="7.5"/><feColorMatrix values="0 0 0 0 0 0 0 0 0 0 0 0 0 0 0 0 0 0 0.2 0"/><feBlend in2="BackgroundImageFix" result="effect1_dropShadow_0_1"/><feBlend in="SourceGraphic" in2="effect1_dropShadow_0_1" result="shape"/></filter></defs></svg>